<svg xmlns="http://www.w3.org/2000/svg" width="22" height="31" viewBox="0 0 22 31"><path fill="#9697A1" d="M18.38 14.49c-.04-3.28 2.8-4.88 2.92-4.95a6.39 6.39 0 0 0-4.95-2.57c-2.09-.21-4.11 1.2-5.17 1.2-1.09 0-2.72-1.18-4.49-1.15a6.64 6.64 0 0 0-5.55 3.25c-2.4 4-.61 9.86 1.7 13.08 1.14 1.58 2.49 3.34 4.25 3.28 1.72-.07 2.36-1.05 4.44-1.05 2.06 0 2.67 1.05 4.46 1.01 1.85-.03 3.01-1.59 4.12-3.18A12.8 12.8 0 0 0 22 19.73c-.04-.02-3.59-1.31-3.62-5.24zM14.71 4.02A5.16 5.16 0 0 0 16.18 0a6.9 6.9 0 0 0-4.22 1.91c-.9.93-1.71 2.44-1.5 3.87a5.7 5.7 0 0 0 4.25-1.76z"/></svg>