<svg xmlns="http://www.w3.org/2000/svg" width="16" height="16" viewBox="0 0 16 16"><path fill="#9697A1" fill-rule="evenodd" d="M14 16H2c-1.1 0-2-.9-2-2V4c0-.53.2-1.04.6-1.42C.95 2.2 1.47 2 2 2h2V1c0-.55.45-1 1-1s1 .45 1 1v1h4V1c0-.55.45-1 1-1s1 .45 1 1v1h2c1.1 0 2 .9 2 2v10c0 .53-.2 1.04-.6 1.42-.37.37-.88.58-1.4.58zm0-12h-2v1c0 .55-.45 1-1 1s-1-.45-1-1V4H6v1c0 .55-.45 1-1 1s-1-.45-1-1V4H2v10h12V4zm-3 8c-.55 0-1-.45-1-1s.45-1 1-1 1 .45 1 1-.45 1-1 1zm0-3c-.55 0-1-.45-1-1s.45-1 1-1 1 .45 1 1-.45 1-1 1zm-3 3c-.55 0-1-.45-1-1s.45-1 1-1 1 .45 1 1-.45 1-1 1zm0-3c-.55 0-1-.45-1-1s.45-1 1-1 1 .45 1 1-.45 1-1 1zm-3 3c-.55 0-1-.45-1-1s.45-1 1-1 1 .45 1 1-.45 1-1 1zm0-3c-.55 0-1-.45-1-1s.45-1 1-1 1 .45 1 1-.45 1-1 1z"/></svg>